<svg width="14" height="15" viewBox="0 0 14 15" fill="none" xmlns="http://www.w3.org/2000/svg">
<path fill-rule="evenodd" clip-rule="evenodd" d="M1.5 0.500069H12.5C13.3284 0.500069 14 1.17164 14 2.00007V13.0001C14 13.8285 13.3284 14.5001 12.5 14.5001H1.5C0.671574 14.5001 0 13.8285 0 13.0001V2.00007C0 1.17164 0.671572 0.500069 1.5 0.500069ZM1.5 1.50007C1.22386 1.50007 1 1.72393 1 2.00007V3.00007H13V2.00007C13 1.72393 12.7761 1.50007 12.5 1.50007H1.5ZM13 4.00007H1V13.0001C1 13.2762 1.22386 13.5001 1.5 13.5001H12.5C12.7761 13.5001 13 13.2762 13 13.0001V4.00007ZM3.2 5.50007C3.08954 5.50007 3 5.58961 3 5.70007V7.30007C3 7.41053 3.08954 7.50007 3.2 7.50007H4.8C4.91046 7.50007 5 7.41053 5 7.30007V5.70007C5 5.58961 4.91046 5.50007 4.8 5.50007H3.2ZM6.2 5.50007C6.08954 5.50007 6 5.58961 6 5.70007V7.30007C6 7.41053 6.08954 7.50007 6.2 7.50007H7.8C7.91046 7.50007 8 7.41053 8 7.30007V5.70007C8 5.58961 7.91046 5.50007 7.8 5.50007H6.2ZM9 5.70007C9 5.58961 9.08954 5.50007 9.2 5.50007H10.8C10.9105 5.50007 11 5.58961 11 5.70007V7.30007C11 7.41053 10.9105 7.50007 10.8 7.50007H9.2C9.08954 7.50007 9 7.41053 9 7.30007V5.70007ZM3.2 9.50007C3.08954 9.50007 3 9.58961 3 9.70007V11.3001C3 11.4105 3.08954 11.5001 3.2 11.5001H4.8C4.91046 11.5001 5 11.4105 5 11.3001V9.70007C5 9.58961 4.91046 9.50007 4.8 9.50007H3.2ZM6 9.70007C6 9.58961 6.08954 9.50007 6.2 9.50007H7.8C7.91046 9.50007 8 9.58961 8 9.70007V11.3001C8 11.4105 7.91046 11.5001 7.8 11.5001H6.2C6.08954 11.5001 6 11.4105 6 11.3001V9.70007ZM9.2 9.50007C9.08954 9.50007 9 9.58961 9 9.70007V11.3001C9 11.4105 9.08954 11.5001 9.2 11.5001H10.8C10.9105 11.5001 11 11.4105 11 11.3001V9.70007C11 9.58961 10.9105 9.50007 10.8 9.50007H9.2Z" fill="#6E7C98"/>
</svg>
