<svg width="8" height="8" viewBox="0 0 8 8" fill="none" xmlns="http://www.w3.org/2000/svg">
<path fill-rule="evenodd" clip-rule="evenodd" d="M0.146447 7.14651C-0.0488155 7.34177 -0.0488155 7.65835 0.146447 7.85361C0.341709 8.04888 0.658291 8.04888 0.853553 7.85361L4 4.70717L7.14645 7.85361C7.34171 8.04888 7.65829 8.04888 7.85355 7.85361C8.04882 7.65835 8.04882 7.34177 7.85355 7.14651L4.70711 4.00006L7.85355 0.853614C8.04882 0.658352 8.04882 0.34177 7.85355 0.146508C7.65829 -0.0487546 7.34171 -0.0487546 7.14645 0.146508L4 3.29295L0.853553 0.146508C0.658291 -0.0487543 0.341709 -0.0487543 0.146447 0.146508C-0.0488155 0.34177 -0.0488155 0.658353 0.146447 0.853615L3.29289 4.00006L0.146447 7.14651Z" fill="#9EA1A8"/>
</svg>
