<svg width="20" height="14" viewBox="0 0 20 14" fill="none" xmlns="http://www.w3.org/2000/svg">
<path d="M0 0.500061C0 0.223919 0.223858 6.10352e-05 0.5 6.10352e-05H19.5C19.7761 6.10352e-05 20 0.223919 20 0.500061V1.50006C20 1.7762 19.7761 2.00006 19.5 2.00006H0.5C0.223857 2.00006 0 1.7762 0 1.50006V0.500061Z" fill="#6E7C98"/>
<path d="M0 6.50006C0 6.22392 0.223858 6.00006 0.5 6.00006H19.5C19.7761 6.00006 20 6.22392 20 6.50006V7.50006C20 7.7762 19.7761 8.00006 19.5 8.00006H0.5C0.223857 8.00006 0 7.7762 0 7.50006V6.50006Z" fill="#6E7C98"/>
<path d="M0 12.5001C0 12.2239 0.223858 12.0001 0.5 12.0001H19.5C19.7761 12.0001 20 12.2239 20 12.5001V13.5001C20 13.7762 19.7761 14.0001 19.5 14.0001H0.5C0.223857 14.0001 0 13.7762 0 13.5001V12.5001Z" fill="#FABB2B"/>
</svg>
