<svg width="180" height="41" viewBox="0 0 180 41" fill="none" xmlns="http://www.w3.org/2000/svg">
<path d="M41.3718 16.7162V20.5C41.3718 29.8192 33.7252 37.402 24.3276 37.402C14.93 37.402 7.28343 29.8192 7.28343 20.5C7.28343 11.1808 14.93 3.59802 24.3276 3.59802H26.2737V0H24.3276C12.9266 0 3.65514 9.19792 3.65514 20.5C3.65514 31.8021 12.9304 41 24.3276 41C35.7248 41 45.0001 31.8021 45.0001 20.5V16.7162H41.3718Z" fill="#1B3062"/>
<path d="M33.8016 16.7162V20.5038C33.8016 22.0242 32.5552 23.2602 31.0221 23.2602H26.1818V16.7162H22.5535V23.2602H14.8802V16.8565H0V20.4545H11.2519V26.8582H31.0259C34.5586 26.8582 37.4337 24.0071 37.4337 20.5038V16.7162H33.8016Z" fill="#1B3062"/>
<path d="M84.6005 16.5846V23.2437C84.6005 25.0219 84.0972 26.398 83.0945 27.3682C82.0918 28.3385 80.6621 28.8255 78.8091 28.8255C77.9132 28.8255 77.1201 28.6927 76.4339 28.4234C75.7476 28.154 75.1719 27.7224 74.7067 27.1247C74.2416 27.7224 73.6735 28.1577 72.9911 28.4234C72.3124 28.6927 71.5079 28.8255 70.5815 28.8255C68.7133 28.8255 67.2836 28.3385 66.2961 27.3682C65.3086 26.398 64.813 25.0219 64.813 23.2437V16.5846H68.4273V22.9743C68.4273 23.9741 68.6065 24.712 68.9611 25.1842C69.3157 25.6564 69.8723 25.8889 70.631 25.8889C71.3898 25.8889 71.9731 25.649 72.3467 25.1731C72.7165 24.6935 72.9034 23.9631 72.9034 22.9743V16.5846H76.5177V22.9743C76.5177 23.9594 76.7046 24.6935 77.0744 25.1731C77.4442 25.6527 78.0161 25.8889 78.7901 25.8889C79.564 25.8889 80.1016 25.6527 80.46 25.1842C80.8146 24.712 80.9938 23.9778 80.9938 22.9743V16.5846H84.6081H84.6005Z" fill="#1B3062"/>
<path d="M95.6149 25.745C96.1182 25.5569 96.5834 25.2617 97.018 24.8596L98.9396 26.8776C97.7653 28.1762 96.0496 28.8292 93.7963 28.8292C92.3895 28.8292 91.1466 28.5636 90.0676 28.0323C88.9848 27.5011 88.1536 26.7669 87.5665 25.8225C86.9794 24.8817 86.6858 23.8119 86.6858 22.6165C86.6858 21.4212 86.9756 20.3698 87.5551 19.4217C88.1346 18.4735 88.9314 17.732 89.9418 17.2007C90.9521 16.6695 92.0921 16.4039 93.3579 16.4039C94.5474 16.4039 95.6302 16.6474 96.6024 17.1343C97.5746 17.6213 98.3524 18.3223 98.9319 19.2409C99.5114 20.1595 99.8012 21.2478 99.8012 22.5022L90.5785 24.2287C90.8415 24.8264 91.2533 25.2765 91.8176 25.5753C92.3818 25.8741 93.0719 26.0254 93.8916 26.0254C94.5398 26.0254 95.1155 25.9332 95.6188 25.745H95.6149ZM91.1313 19.905C90.5594 20.4731 90.2582 21.2589 90.2277 22.2587L96.2974 21.115C96.1258 20.4878 95.7789 19.9861 95.2566 19.6135C94.7304 19.2409 94.0975 19.0527 93.3579 19.0527C92.4467 19.0527 91.7032 19.3368 91.1351 19.905H91.1313Z" fill="#1B3062"/>
<path d="M112.532 17.1785C113.481 17.695 114.228 18.4181 114.766 19.3552C115.307 20.2886 115.578 21.3769 115.578 22.6164C115.578 23.856 115.307 24.9443 114.766 25.8777C114.224 26.8111 113.481 27.5379 112.532 28.0544C111.582 28.5709 110.526 28.8291 109.367 28.8291C107.651 28.8291 106.348 28.3052 105.452 27.2612V28.652H101.997V12.0173H105.612V17.8684C106.523 16.8981 107.773 16.4111 109.367 16.4111C110.526 16.4111 111.578 16.6694 112.532 17.1859V17.1785ZM111.026 25.0476C111.62 24.4426 111.918 23.631 111.918 22.6164C111.918 21.6019 111.62 20.7903 111.026 20.1853C110.431 19.5802 109.668 19.2777 108.742 19.2777C107.815 19.2777 107.053 19.5802 106.458 20.1853C105.863 20.7903 105.566 21.6019 105.566 22.6164C105.566 23.631 105.863 24.4426 106.458 25.0476C107.053 25.6527 107.815 25.9552 108.742 25.9552C109.668 25.9552 110.431 25.6527 111.026 25.0476Z" fill="#1B3062"/>
<path d="M120.199 28.0323C119.139 27.5011 118.316 26.7669 117.721 25.8225C117.126 24.8817 116.829 23.8119 116.829 22.6165C116.829 21.4212 117.126 20.3513 117.721 19.4106C118.316 18.4698 119.143 17.732 120.199 17.2007C121.255 16.6695 122.448 16.4039 123.779 16.4039C125.11 16.4039 126.238 16.6695 127.218 17.2007C128.198 17.732 128.915 18.4883 129.361 19.477L126.558 20.9342C125.91 19.8275 124.976 19.2741 123.756 19.2741C122.814 19.2741 122.033 19.5729 121.415 20.1706C120.798 20.7682 120.489 21.5836 120.489 22.6129C120.489 23.6422 120.798 24.4575 121.415 25.0551C122.033 25.6528 122.814 25.9516 123.756 25.9516C124.991 25.9516 125.926 25.3982 126.558 24.2915L129.361 25.7708C128.911 26.7263 128.198 27.4753 127.218 28.0139C126.238 28.5525 125.091 28.8218 123.779 28.8218C122.467 28.8218 121.259 28.5562 120.199 28.025V28.0323Z" fill="#1B3062"/>
<path d="M142.445 17.7503C143.395 18.6468 143.871 19.9786 143.871 21.7421V28.6483H140.257V22.2807C140.257 21.3252 140.039 20.6095 139.609 20.141C139.178 19.6688 138.549 19.4363 137.733 19.4363C136.822 19.4363 136.093 19.7093 135.556 20.2553C135.014 20.8013 134.744 21.613 134.744 22.6865V28.652H131.129V12.0173H134.744V17.8462C135.224 17.3814 135.8 17.0272 136.482 16.7801C137.161 16.5329 137.904 16.4111 138.705 16.4111C140.249 16.4111 141.496 16.8612 142.449 17.7577L142.445 17.7503Z" fill="#1B3062"/>
<path d="M155.05 25.745C155.554 25.5569 156.019 25.2617 156.453 24.8596L158.375 26.8776C157.201 28.1762 155.485 28.8292 153.232 28.8292C151.825 28.8292 150.582 28.5636 149.503 28.0323C148.42 27.5011 147.589 26.7669 147.002 25.8225C146.415 24.8817 146.121 23.8119 146.121 22.6165C146.121 21.4212 146.411 20.3698 146.99 19.4217C147.57 18.4735 148.367 17.732 149.377 17.2007C150.387 16.6695 151.527 16.4039 152.793 16.4039C153.983 16.4039 155.066 16.6474 156.038 17.1343C157.01 17.6213 157.788 18.3223 158.367 19.2409C158.947 20.1595 159.237 21.2478 159.237 22.5022L150.014 24.2287C150.277 24.8264 150.689 25.2765 151.253 25.5753C151.817 25.8741 152.507 26.0254 153.327 26.0254C153.975 26.0254 154.551 25.9332 155.054 25.745H155.05ZM150.567 19.905C149.995 20.4731 149.694 21.2589 149.663 22.2587L155.733 21.115C155.561 20.4878 155.214 19.9861 154.692 19.6135C154.166 19.2409 153.533 19.0527 152.793 19.0527C151.882 19.0527 151.138 19.3368 150.57 19.905H150.567Z" fill="#1B3062"/>
<path d="M164.955 16.854H167.087V19.5435H165.047V28.6448H161.433V16.3117C161.433 14.9356 161.852 13.8436 162.694 13.0393C163.537 12.2314 164.723 11.8293 166.252 11.8293C166.793 11.8293 167.308 11.8846 167.792 11.9989C168.28 12.1096 168.684 12.272 169.008 12.4823L168.059 15.0168C167.643 14.7327 167.155 14.5925 166.599 14.5925C165.501 14.5925 164.955 15.1754 164.955 16.3412V16.8577V16.854Z" fill="#1B3062"/>
<path d="M170.888 28.4565C169.9 28.2094 169.111 27.8995 168.524 27.5268L169.729 25.0145C170.285 25.3576 170.956 25.638 171.746 25.8557C172.535 26.0733 173.305 26.1803 174.064 26.1803C175.593 26.1803 176.359 25.815 176.359 25.0809C176.359 24.7378 176.149 24.4906 175.734 24.3394C175.318 24.1918 174.674 24.0627 173.812 23.9594C172.794 23.8118 171.951 23.6384 171.288 23.4429C170.625 23.2474 170.049 22.9042 169.561 22.4099C169.073 21.9155 168.833 21.2146 168.833 20.3033C168.833 19.5397 169.061 18.8645 169.515 18.2743C169.973 17.684 170.636 17.2228 171.509 16.8945C172.382 16.5661 173.412 16.4001 174.601 16.4001C175.482 16.4001 176.359 16.4924 177.232 16.6805C178.105 16.8687 178.826 17.1269 179.398 17.4553L178.193 19.9455C177.095 19.3478 175.898 19.049 174.601 19.049C173.827 19.049 173.248 19.1523 172.863 19.3626C172.478 19.5729 172.283 19.8422 172.283 20.1705C172.283 20.5431 172.493 20.8051 172.908 20.9563C173.324 21.1076 173.991 21.2478 174.902 21.3806C175.92 21.5466 176.755 21.72 177.404 21.9081C178.052 22.0963 178.616 22.4357 179.096 22.9301C179.577 23.4244 179.813 24.1106 179.813 24.9923C179.813 25.7413 179.581 26.4053 179.119 26.9882C178.654 27.5711 177.979 28.0249 177.091 28.3459C176.203 28.6669 175.146 28.8292 173.926 28.8292C172.889 28.8292 171.879 28.7074 170.892 28.4602L170.888 28.4565Z" fill="#1B3062"/>
</svg>
